<svg xmlns="http://www.w3.org/2000/svg" xmlns:xlink="http://www.w3.org/1999/xlink" viewBox="0,0,256,256" width="38px" height="38px"><g fill="#4ca360" fill-rule="nonzero" stroke="none" stroke-width="1" stroke-linecap="butt" stroke-linejoin="miter" stroke-miterlimit="10" stroke-dasharray="" stroke-dashoffset="0" font-family="none" font-weight="none" font-size="none" text-anchor="none" style="mix-blend-mode: normal"><g transform="scale(5.33333,5.33333)"><path d="M14,1c0,0 -1.13531,5.23386 -1.69531,10.88086c-1.494,1.899 -2.16873,3.97242 -2.30274,5.48242l-0.00781,0.13086c0,6.564 2.22227,16.524 3.19727,20.875l-10.42773,5.81836c-0.723,0.404 -0.98112,1.31702 -0.57812,2.04102c0.264,0.472 0.74405,0.74072 1.24805,0.76172l-0.00781,0.00586h0.05078c0.007,0 0.01353,0.00195 0.01953,0.00195c0.007,0 0.01448,-0.00195 0.02148,-0.00195h40.68359c0.098,0.02 0.19592,0.03906 0.29492,0.03906c0.516,0 1.01788,-0.26519 1.29688,-0.74219c0.419,-0.715 0.17889,-1.63473 -0.53711,-2.05273l-10.32812,-6.04297c0.072,-0.355 0.15319,-0.74573 0.24219,-1.17773c0.988,-4.791 2.82617,-13.71039 2.82617,-19.65039l-0.00586,-0.13477c-0.135,-1.49 -0.80978,-3.5342 -2.30078,-5.4082c-0.561,-5.626 -1.68945,-10.82617 -1.68945,-10.82617l-2.45508,7.54102c-1.955,-0.953 -4.43073,-1.57227 -7.55273,-1.57227c-3.114,0 -5.58316,0.62298 -7.53516,1.58398zM15.94531,23.9668l6.06055,3.04883l-3.51172,0.70898c-0.73,0.147 -1.45178,-0.28023 -1.67578,-0.99023zM31.94922,24.02344l-0.90039,2.85742c-0.207,0.656 -0.88269,1.04548 -1.55469,0.89648l-3.50781,-0.77539zM33.06445,32.28711c-0.302,1.551 -0.59203,2.963 -0.83203,4.125c-0.157,0.76 -0.29062,1.40992 -0.39062,1.91992c-0.129,0.433 -0.35405,0.79842 -0.62305,0.98242l-5.53125,4.01758c-0.11,0.084 -0.18011,0.09961 -0.28711,0.09961h-2.70117c-0.059,0 -0.15936,-0.016 -0.31836,-0.125l-5.53516,-4.01953c-0.148,-0.101 -0.28739,-0.28605 -0.40039,-0.49805c-0.03,-0.148 -0.07534,-0.29459 -0.15234,-0.43359c-0.012,-0.022 -0.02997,-0.03759 -0.04297,-0.05859l-0.10742,-0.48242c-0.279,-1.246 -0.70816,-3.16644 -1.16016,-5.39844c3.541,1.293 8.26553,2.87008 8.51953,2.95508l0.49219,0.16406zM24.07031,36.9668c-1.397,0 -2.53473,0.26667 -3.30273,0.51367c-0.594,0.19 -0.87261,0.86283 -0.59961,1.42383l0.00195,0.00195c0.223,0.456 0.74356,0.6853 1.22656,0.5293c0.61,-0.197 1.51517,-0.42187 2.57617,-0.42187c1.203,0 2.16697,0.21516 2.79297,0.41016c0.482,0.149 0.99384,-0.07825 1.21484,-0.53125c0.275,-0.563 -0.01037,-1.23978 -0.60937,-1.42578c-0.779,-0.242 -1.92878,-0.5 -3.30078,-0.5z"></path></g></g></svg>