<svg xmlns="http://www.w3.org/2000/svg"  viewBox="0 0 48 48" width="38px" height="38px"><path d="M 14 1 C 14 1 12.864688 6.2338594 12.304688 11.880859 C 10.810688 13.779859 10.135953 15.853281 10.001953 17.363281 L 9.9941406 17.494141 C 9.9941406 24.058141 12.216406 34.018141 13.191406 38.369141 L 2.7636719 44.1875 C 2.0406719 44.5915 1.7825469 45.504516 2.1855469 46.228516 C 2.4495469 46.700516 2.9295938 46.969234 3.4335938 46.990234 L 3.4257812 46.996094 L 3.4765625 46.996094 C 3.4835625 46.996094 3.4900938 46.998047 3.4960938 46.998047 C 3.5030938 46.998047 3.5105781 46.996094 3.5175781 46.996094 L 44.201172 46.996094 C 44.299172 47.016094 44.397094 47.035156 44.496094 47.035156 C 45.012094 47.035156 45.513969 46.769969 45.792969 46.292969 C 46.211969 45.577969 45.971859 44.658234 45.255859 44.240234 L 34.927734 38.197266 C 34.999734 37.842266 35.080922 37.451531 35.169922 37.019531 C 36.157922 32.228531 37.996094 23.309141 37.996094 17.369141 L 37.990234 17.234375 C 37.855234 15.744375 37.180453 13.700172 35.689453 11.826172 C 35.128453 6.2001719 34 1 34 1 L 31.544922 8.5410156 C 29.589922 7.5880156 27.114187 6.96875 23.992188 6.96875 C 20.878187 6.96875 18.409031 7.5917344 16.457031 8.5527344 L 14 1 z M 15.945312 23.966797 L 22.005859 27.015625 L 18.494141 27.724609 C 17.764141 27.871609 17.042359 27.444375 16.818359 26.734375 L 15.945312 23.966797 z M 31.949219 24.023438 L 31.048828 26.880859 C 30.841828 27.536859 30.166141 27.926344 29.494141 27.777344 L 25.986328 27.001953 L 31.949219 24.023438 z M 33.064453 32.287109 C 32.762453 33.838109 32.472422 35.250109 32.232422 36.412109 C 32.075422 37.172109 31.941797 37.822031 31.841797 38.332031 C 31.712797 38.765031 31.48775 39.130453 31.21875 39.314453 L 25.6875 43.332031 C 25.5775 43.416031 25.507391 43.431641 25.400391 43.431641 L 22.699219 43.431641 C 22.640219 43.431641 22.539859 43.415641 22.380859 43.306641 L 16.845703 39.287109 C 16.697703 39.186109 16.558312 39.001063 16.445312 38.789062 C 16.415312 38.641062 16.369969 38.494469 16.292969 38.355469 C 16.280969 38.333469 16.263 38.317875 16.25 38.296875 L 16.142578 37.814453 C 15.863578 36.568453 15.434422 34.648016 14.982422 32.416016 C 18.523422 33.709016 23.247953 35.286094 23.501953 35.371094 L 23.994141 35.535156 L 33.064453 32.287109 z M 24.070312 36.966797 C 22.673313 36.966797 21.535578 37.233469 20.767578 37.480469 C 20.173578 37.670469 19.894969 38.343297 20.167969 38.904297 L 20.169922 38.90625 C 20.392922 39.36225 20.913484 39.591547 21.396484 39.435547 C 22.006484 39.238547 22.911656 39.013672 23.972656 39.013672 C 25.175656 39.013672 26.139625 39.228828 26.765625 39.423828 C 27.247625 39.572828 27.759469 39.345578 27.980469 38.892578 C 28.255469 38.329578 27.970094 37.652797 27.371094 37.466797 C 26.592094 37.224797 25.442312 36.966797 24.070312 36.966797 z"/></svg>